<mxfile host="app.diagrams.net" modified="2024-02-06T01:37:18.696Z" agent="Mozilla/5.0 (Windows NT 10.0; Win64; x64; rv:122.0) Gecko/20100101 Firefox/122.0" etag="inS2W9TI-0ZsJpDl-DgO" version="22.1.20" type="github">
  <diagram name="第 1 页" id="r59d_sr4X1508GLzZ14k">
    <mxGraphModel dx="1195" dy="628" grid="1" gridSize="10" guides="1" tooltips="1" connect="1" arrows="1" fold="1" page="1" pageScale="1" pageWidth="827" pageHeight="1169" math="0" shadow="0">
      <root>
        <mxCell id="0" />
        <mxCell id="1" parent="0" />
        <object label="Actor" id="UeqptkkxjQLyiw74k_jr-1">
          <mxCell style="shape=umlActor;verticalLabelPosition=bottom;verticalAlign=top;html=1;outlineConnect=0;" parent="1" vertex="1">
            <mxGeometry x="50" y="530" width="40" height="80" as="geometry" />
          </mxCell>
        </object>
        <mxCell id="UeqptkkxjQLyiw74k_jr-2" value="eacp消息框架" style="whiteSpace=wrap;html=1;aspect=fixed;" parent="1" vertex="1">
          <mxGeometry x="520" y="638" width="90" height="90" as="geometry" />
        </mxCell>
        <mxCell id="UeqptkkxjQLyiw74k_jr-3" value="客户端" style="shape=parallelogram;perimeter=parallelogramPerimeter;whiteSpace=wrap;html=1;fixedSize=1;" parent="1" vertex="1">
          <mxGeometry x="210" y="540" width="150" height="60" as="geometry" />
        </mxCell>
        <mxCell id="UeqptkkxjQLyiw74k_jr-7" value="消息发送方" style="shape=parallelogram;perimeter=parallelogramPerimeter;whiteSpace=wrap;html=1;fixedSize=1;" parent="1" vertex="1">
          <mxGeometry x="120" y="780" width="130" height="60" as="geometry" />
        </mxCell>
        <mxCell id="UeqptkkxjQLyiw74k_jr-9" value="" style="shape=flexArrow;endArrow=classic;html=1;rounded=0;" parent="1" edge="1">
          <mxGeometry width="50" height="50" relative="1" as="geometry">
            <mxPoint x="110" y="570" as="sourcePoint" />
            <mxPoint x="200" y="570" as="targetPoint" />
          </mxGeometry>
        </mxCell>
        <mxCell id="UeqptkkxjQLyiw74k_jr-14" value="" style="shape=flexArrow;endArrow=classic;html=1;rounded=0;" parent="1" edge="1">
          <mxGeometry width="50" height="50" relative="1" as="geometry">
            <mxPoint x="260" y="810" as="sourcePoint" />
            <mxPoint x="500" y="710" as="targetPoint" />
          </mxGeometry>
        </mxCell>
        <mxCell id="UeqptkkxjQLyiw74k_jr-15" value="发送消息" style="text;html=1;align=center;verticalAlign=middle;resizable=0;points=[];autosize=1;strokeColor=none;fillColor=none;" parent="1" vertex="1">
          <mxGeometry x="330" y="728" width="70" height="30" as="geometry" />
        </mxCell>
        <mxCell id="UeqptkkxjQLyiw74k_jr-16" value="数据库" style="shape=cylinder3;whiteSpace=wrap;html=1;boundedLbl=1;backgroundOutline=1;size=15;" parent="1" vertex="1">
          <mxGeometry x="880" y="770" width="60" height="80" as="geometry" />
        </mxCell>
        <mxCell id="UeqptkkxjQLyiw74k_jr-18" value="保存到消息至数据库" style="text;html=1;align=center;verticalAlign=middle;resizable=0;points=[];autosize=1;strokeColor=none;fillColor=none;" parent="1" vertex="1">
          <mxGeometry x="735" y="720" width="130" height="30" as="geometry" />
        </mxCell>
        <mxCell id="UeqptkkxjQLyiw74k_jr-19" value="第三方系统" style="ellipse;shape=cloud;whiteSpace=wrap;html=1;" parent="1" vertex="1">
          <mxGeometry x="990" y="540" width="120" height="80" as="geometry" />
        </mxCell>
        <mxCell id="UeqptkkxjQLyiw74k_jr-20" value="第三方消息插件" style="ellipse;whiteSpace=wrap;html=1;" parent="1" vertex="1">
          <mxGeometry x="730" y="545" width="120" height="80" as="geometry" />
        </mxCell>
        <mxCell id="UeqptkkxjQLyiw74k_jr-21" value="" style="shape=flexArrow;endArrow=classic;html=1;rounded=0;" parent="1" edge="1">
          <mxGeometry width="50" height="50" relative="1" as="geometry">
            <mxPoint x="620" y="660" as="sourcePoint" />
            <mxPoint x="720" y="620" as="targetPoint" />
          </mxGeometry>
        </mxCell>
        <mxCell id="UeqptkkxjQLyiw74k_jr-22" value="" style="shape=flexArrow;endArrow=classic;html=1;rounded=0;" parent="1" edge="1">
          <mxGeometry width="50" height="50" relative="1" as="geometry">
            <mxPoint x="860" y="579.5" as="sourcePoint" />
            <mxPoint x="990" y="579.5" as="targetPoint" />
          </mxGeometry>
        </mxCell>
        <mxCell id="UeqptkkxjQLyiw74k_jr-24" value="获取消息类型和内容" style="text;html=1;align=center;verticalAlign=middle;resizable=0;points=[];autosize=1;strokeColor=none;fillColor=none;" parent="1" vertex="1">
          <mxGeometry x="383" y="580" width="130" height="30" as="geometry" />
        </mxCell>
        <mxCell id="QfdEHI889G5tHcZIty8Z-1" value="" style="shape=flexArrow;endArrow=classic;startArrow=classic;html=1;rounded=0;" parent="1" edge="1">
          <mxGeometry width="100" height="100" relative="1" as="geometry">
            <mxPoint x="620.0021276595744" y="710.0036170212767" as="sourcePoint" />
            <mxPoint x="870" y="820" as="targetPoint" />
          </mxGeometry>
        </mxCell>
        <mxCell id="QfdEHI889G5tHcZIty8Z-2" value="从数据库获取消息数据" style="text;html=1;align=center;verticalAlign=middle;resizable=0;points=[];autosize=1;strokeColor=none;fillColor=none;" parent="1" vertex="1">
          <mxGeometry x="640" y="780" width="140" height="30" as="geometry" />
        </mxCell>
        <mxCell id="uP2lI5iLvTRz7hn7Uk1g-1" value="" style="shape=flexArrow;endArrow=classic;startArrow=classic;html=1;rounded=0;exitX=0.989;exitY=0.381;exitDx=0;exitDy=0;exitPerimeter=0;" edge="1" parent="1" source="UeqptkkxjQLyiw74k_jr-3">
          <mxGeometry width="100" height="100" relative="1" as="geometry">
            <mxPoint x="370" y="570" as="sourcePoint" />
            <mxPoint x="500" y="670" as="targetPoint" />
          </mxGeometry>
        </mxCell>
        <object label="Actor" id="uP2lI5iLvTRz7hn7Uk1g-2">
          <mxCell style="shape=umlActor;verticalLabelPosition=bottom;verticalAlign=top;html=1;outlineConnect=0;" vertex="1" parent="1">
            <mxGeometry x="35" y="1100" width="40" height="80" as="geometry" />
          </mxCell>
        </object>
        <mxCell id="uP2lI5iLvTRz7hn7Uk1g-3" value="Message服务" style="whiteSpace=wrap;html=1;aspect=fixed;" vertex="1" parent="1">
          <mxGeometry x="505" y="1208" width="90" height="90" as="geometry" />
        </mxCell>
        <mxCell id="uP2lI5iLvTRz7hn7Uk1g-4" value="客户端" style="shape=parallelogram;perimeter=parallelogramPerimeter;whiteSpace=wrap;html=1;fixedSize=1;" vertex="1" parent="1">
          <mxGeometry x="195" y="1110" width="150" height="60" as="geometry" />
        </mxCell>
        <mxCell id="uP2lI5iLvTRz7hn7Uk1g-5" value="消息发送方" style="shape=parallelogram;perimeter=parallelogramPerimeter;whiteSpace=wrap;html=1;fixedSize=1;" vertex="1" parent="1">
          <mxGeometry x="105" y="1350" width="130" height="60" as="geometry" />
        </mxCell>
        <mxCell id="uP2lI5iLvTRz7hn7Uk1g-6" value="" style="shape=flexArrow;endArrow=classic;html=1;rounded=0;" edge="1" parent="1">
          <mxGeometry width="50" height="50" relative="1" as="geometry">
            <mxPoint x="95" y="1140" as="sourcePoint" />
            <mxPoint x="185" y="1140" as="targetPoint" />
          </mxGeometry>
        </mxCell>
        <mxCell id="uP2lI5iLvTRz7hn7Uk1g-7" value="" style="shape=flexArrow;endArrow=classic;html=1;rounded=0;" edge="1" parent="1">
          <mxGeometry width="50" height="50" relative="1" as="geometry">
            <mxPoint x="245" y="1380" as="sourcePoint" />
            <mxPoint x="485" y="1280" as="targetPoint" />
          </mxGeometry>
        </mxCell>
        <mxCell id="uP2lI5iLvTRz7hn7Uk1g-8" value="发送消息" style="text;html=1;align=center;verticalAlign=middle;resizable=0;points=[];autosize=1;strokeColor=none;fillColor=none;" vertex="1" parent="1">
          <mxGeometry x="315" y="1298" width="70" height="30" as="geometry" />
        </mxCell>
        <mxCell id="uP2lI5iLvTRz7hn7Uk1g-9" value="数据库" style="shape=cylinder3;whiteSpace=wrap;html=1;boundedLbl=1;backgroundOutline=1;size=15;" vertex="1" parent="1">
          <mxGeometry x="865" y="1340" width="60" height="80" as="geometry" />
        </mxCell>
        <mxCell id="uP2lI5iLvTRz7hn7Uk1g-10" value="保存到消息至数据库" style="text;html=1;align=center;verticalAlign=middle;resizable=0;points=[];autosize=1;strokeColor=none;fillColor=none;" vertex="1" parent="1">
          <mxGeometry x="720" y="1290" width="130" height="30" as="geometry" />
        </mxCell>
        <mxCell id="uP2lI5iLvTRz7hn7Uk1g-11" value="第三方系统" style="ellipse;shape=cloud;whiteSpace=wrap;html=1;" vertex="1" parent="1">
          <mxGeometry x="975" y="1110" width="120" height="80" as="geometry" />
        </mxCell>
        <mxCell id="uP2lI5iLvTRz7hn7Uk1g-12" value="第三方消息插件" style="ellipse;whiteSpace=wrap;html=1;" vertex="1" parent="1">
          <mxGeometry x="715" y="1115" width="120" height="80" as="geometry" />
        </mxCell>
        <mxCell id="uP2lI5iLvTRz7hn7Uk1g-13" value="" style="shape=flexArrow;endArrow=classic;html=1;rounded=0;" edge="1" parent="1">
          <mxGeometry width="50" height="50" relative="1" as="geometry">
            <mxPoint x="605" y="1230" as="sourcePoint" />
            <mxPoint x="705" y="1190" as="targetPoint" />
          </mxGeometry>
        </mxCell>
        <mxCell id="uP2lI5iLvTRz7hn7Uk1g-14" value="" style="shape=flexArrow;endArrow=classic;html=1;rounded=0;" edge="1" parent="1">
          <mxGeometry width="50" height="50" relative="1" as="geometry">
            <mxPoint x="845" y="1149.5" as="sourcePoint" />
            <mxPoint x="975" y="1149.5" as="targetPoint" />
          </mxGeometry>
        </mxCell>
        <mxCell id="uP2lI5iLvTRz7hn7Uk1g-15" value="获取新的消息" style="text;html=1;align=center;verticalAlign=middle;resizable=0;points=[];autosize=1;strokeColor=none;fillColor=none;" vertex="1" parent="1">
          <mxGeometry x="383" y="1150" width="100" height="30" as="geometry" />
        </mxCell>
        <mxCell id="uP2lI5iLvTRz7hn7Uk1g-16" value="" style="shape=flexArrow;endArrow=classic;startArrow=classic;html=1;rounded=0;" edge="1" parent="1">
          <mxGeometry width="100" height="100" relative="1" as="geometry">
            <mxPoint x="605.0021276595744" y="1280.0036170212766" as="sourcePoint" />
            <mxPoint x="855" y="1390" as="targetPoint" />
          </mxGeometry>
        </mxCell>
        <mxCell id="uP2lI5iLvTRz7hn7Uk1g-17" value="从数据库获取消息数据" style="text;html=1;align=center;verticalAlign=middle;resizable=0;points=[];autosize=1;strokeColor=none;fillColor=none;" vertex="1" parent="1">
          <mxGeometry x="625" y="1350" width="140" height="30" as="geometry" />
        </mxCell>
        <mxCell id="uP2lI5iLvTRz7hn7Uk1g-18" value="" style="shape=flexArrow;endArrow=classic;startArrow=classic;html=1;rounded=0;" edge="1" parent="1">
          <mxGeometry width="100" height="100" relative="1" as="geometry">
            <mxPoint x="350" y="1160" as="sourcePoint" />
            <mxPoint x="485" y="1240" as="targetPoint" />
          </mxGeometry>
        </mxCell>
        <mxCell id="uP2lI5iLvTRz7hn7Uk1g-19" value="NewsFeed" style="shape=parallelogram;perimeter=parallelogramPerimeter;whiteSpace=wrap;html=1;fixedSize=1;" vertex="1" parent="1">
          <mxGeometry x="475" y="1020" width="150" height="60" as="geometry" />
        </mxCell>
        <mxCell id="uP2lI5iLvTRz7hn7Uk1g-20" value="" style="shape=flexArrow;endArrow=classic;html=1;rounded=0;" edge="1" parent="1">
          <mxGeometry width="50" height="50" relative="1" as="geometry">
            <mxPoint x="550" y="1190" as="sourcePoint" />
            <mxPoint x="550" y="1090" as="targetPoint" />
          </mxGeometry>
        </mxCell>
        <mxCell id="uP2lI5iLvTRz7hn7Uk1g-23" value="" style="shape=flexArrow;endArrow=classic;html=1;rounded=0;" edge="1" parent="1">
          <mxGeometry width="50" height="50" relative="1" as="geometry">
            <mxPoint x="470" y="1050" as="sourcePoint" />
            <mxPoint x="350" y="1130" as="targetPoint" />
          </mxGeometry>
        </mxCell>
        <mxCell id="uP2lI5iLvTRz7hn7Uk1g-25" value="通知客户端拉取消息" style="text;html=1;align=center;verticalAlign=middle;resizable=0;points=[];autosize=1;strokeColor=none;fillColor=none;" vertex="1" parent="1">
          <mxGeometry x="315" y="1040" width="130" height="30" as="geometry" />
        </mxCell>
      </root>
    </mxGraphModel>
  </diagram>
</mxfile>
